<svg xmlns="http://www.w3.org/2000/svg" width="16.434" height="12.828" viewBox="0 0 16.434 12.828">
  <defs>
    <style>
      .cls-1 {
        fill: #fff;
      }
    </style>
  </defs>
  <path id="Path_102" data-name="Path 102" class="cls-1" d="M17.412,3.63H5.908A2.436,2.436,0,0,0,3.443,6.035v8.017a2.436,2.436,0,0,0,2.465,2.405h11.5a2.436,2.436,0,0,0,2.465-2.405V6.035A2.436,2.436,0,0,0,17.412,3.63Zm-.337,1.6L12.244,9.948a.836.836,0,0,1-1.167,0L6.245,5.233Zm1.159,8.819a.812.812,0,0,1-.822.8H5.908a.812.812,0,0,1-.822-.8V6.332l4.832,4.714a2.509,2.509,0,0,0,3.484,0l4.832-4.714Z" transform="translate(-3.443 -3.63)"/>
</svg>
