<svg xmlns="http://www.w3.org/2000/svg" width="10" height="10" viewBox="0 0 12 12">
  <g id="Polygon_1" data-name="Polygon 1" transform="translate(10 12) rotate(180)" fill="#6381d2">
    <path d="M 7.585790157318115 4.500001430511475 L 2.414210081100464 4.500001430511475 C 2.104219913482666 4.500001430511475 1.982270002365112 4.26375150680542 1.952270030975342 4.191341400146484 C 1.922279953956604 4.118941307067871 1.841459989547729 3.865651369094849 2.060659885406494 3.646441221237183 L 4.646440029144287 1.060661315917969 C 4.740880012512207 0.9662213325500488 4.86644983291626 0.9142113327980042 5 0.9142113327980042 C 5.13355016708374 0.9142113327980042 5.259119987487793 0.9662213325500488 5.353559970855713 1.060661315917969 L 7.939340114593506 3.646441221237183 C 8.158539772033691 3.865651369094849 8.077719688415527 4.118941307067871 8.047730445861816 4.191341400146484 C 8.017729759216309 4.26375150680542 7.895780086517334 4.500001430511475 7.585790157318115 4.500001430511475 Z" stroke="none"/>
    <path d="M 5 1.414211273193359 L 5 1.414221286773682 L 2.414219856262207 4.000001430511475 C 2.414219856262207 4.000001430511475 2.414219856262207 4.000001430511475 2.414209842681885 4.000001430511475 L 7.585780143737793 4.000001430511475 L 5.000949859619141 1.414291381835938 C 5.000860214233398 1.414271354675293 5.000500202178955 1.414211273193359 5 1.414211273193359 M 5 0.4142136573791504 C 5.255922317504883 0.4142136573791504 5.511845111846924 0.5118465423583984 5.707109928131104 0.7071113586425781 L 8.292889595031738 3.292891263961792 C 8.922860145568848 3.922861337661743 8.476690292358398 5.000001430511475 7.585789680480957 5.000001430511475 L 2.414209842681885 5.000001430511475 C 1.523309707641602 5.000001430511475 1.077139854431152 3.922861337661743 1.707110404968262 3.292891263961792 L 4.292890071868896 0.7071113586425781 C 4.488154888153076 0.5118465423583984 4.744077682495117 0.4142136573791504 5 0.4142136573791504 Z" stroke="none" fill="#5371f2"/>
  </g>
</svg>
